<svg xmlns="http://www.w3.org/2000/svg" viewBox="0 0 64 64">
  <path d="M32 8c-2 4-6 8-6 14 0 8 6 14 6 14s6-6 6-14c0-6-4-10-6-14z" fill="#DC143C"/>
  <path d="M18 20c-2 3-4 7-4 12 0 7 4 12 8 14 0 0-2-8 0-14 2-6 6-8 6-8s-6-4-10-4z" fill="#B22222"/>
  <path d="M46 20c2 3 4 7 4 12 0 7-4 12-8 14 0 0 2-8 0-14-2-6-6-8-6-8s6-4 10-4z" fill="#B22222"/>
  <ellipse cx="32" cy="18" rx="10" ry="6" fill="#228B22"/>
  <circle cx="28" cy="14" r="3" fill="#32CD32"/>
  <circle cx="36" cy="14" r="3" fill="#32CD32"/>
  <circle cx="32" cy="11" r="3" fill="#32CD32"/>
  <circle cx="32" cy="30" r="3" fill="#FFD700"/>
  <circle cx="26" cy="28" r="2" fill="#FFD700"/>
  <circle cx="38" cy="28" r="2" fill="#FFD700"/>
  <circle cx="30" cy="36" r="2" fill="#FFD700"/>
  <circle cx="34" cy="36" r="2" fill="#FFD700"/>
</svg>
